<svg xmlns="http://www.w3.org/2000/svg" viewBox="0 0 48 48" width="48" height="48">
  <!-- Critical Bug - 48x48 -->
  <!-- Larger body -->
  <rect x="12" y="14" width="24" height="20" fill="#FF4500"/>
  <rect x="14" y="16" width="20" height="16" fill="#FF6B35"/>
  <!-- More legs (multi-legged) -->
  <rect x="4" y="16" width="8" height="3" fill="#FF4500"/>
  <rect x="36" y="16" width="8" height="3" fill="#FF4500"/>
  <rect x="6" y="22" width="6" height="3" fill="#FF4500"/>
  <rect x="36" y="22" width="6" height="3" fill="#FF4500"/>
  <rect x="8" y="28" width="6" height="3" fill="#FF4500"/>
  <rect x="34" y="28" width="6" height="3" fill="#FF4500"/>
  <!-- Glowing red eyes (larger) -->
  <rect x="16" y="20" width="5" height="5" fill="#FF0000"/>
  <rect x="27" y="20" width="5" height="5" fill="#FF0000"/>
  <rect x="18" y="22" width="2" height="2" fill="#FFFFFF"/>
  <rect x="29" y="22" width="2" height="2" fill="#FFFFFF"/>
  <!-- Error energy (crackling) -->
  <rect x="20" y="12" width="2" height="4" fill="#FFFF00"/>
  <rect x="26" y="10" width="2" height="3" fill="#FFFF00"/>
  <rect x="22" y="34" width="3" height="2" fill="#FFFF00"/>
  <!-- Antenna -->
  <rect x="23" y="6" width="2" height="8" fill="#FF4500"/>
  <circle cx="24" cy="5" r="2" fill="#FF0000"/>
</svg>